<svg class="SVGInline-svg" width="16" height="16" viewBox="0 0 16 16" fill="none" xmlns="http://www.w3.org/2000/svg"><path d="M15.7648 3.06309l-2.1689 2.16894c-.57.56999-1.4935.56999-2.0635 0l-.7649-.76498c-.57-.56998-.57-1.49346 0-2.06344L12.9364.234662C11.3735-.289324 9.581.0631668 8.33303 1.30263 7.10156 2.5251 6.73907 4.34455 7.25106 5.92001L.585735 12.5858c-.78098.781-.78098 2.0475 0 2.8285.780975.7809 2.047445.7809 2.828425 0L10.069 8.75944c1.5679.52599 3.3674.168 4.6164-1.08097 1.2484-1.24897 1.6049-3.04742 1.0794-4.61538z"></path></svg>